<svg xmlns="http://www.w3.org/2000/svg" xmlns:xlink="http://www.w3.org/1999/xlink" width="500" zoomAndPan="magnify" viewBox="0 0 375 374.999991" height="500" preserveAspectRatio="xMidYMid meet" version="1.0"><defs><g/></defs><g fill="#ff914d" fill-opacity="1"><g transform="translate(4.060551, 200.336485)"><g><path d="M 27.40625 0 L 21.46875 0 L 19.3125 -6.578125 L 8.375 -6.578125 L 6.234375 0 L 0.4375 0 L 10.296875 -28.5625 L 17.546875 -28.5625 Z M 13.578125 -22.59375 L 9.90625 -11.328125 L 17.75 -11.328125 L 14.0625 -22.59375 Z M 13.578125 -22.59375 "/></g></g></g><g fill="#ff914d" fill-opacity="1"><g transform="translate(31.889868, 200.336485)"><g><path d="M 12.65625 0.40625 C 10.675781 0.40625 8.914062 0.160156 7.375 -0.328125 C 5.832031 -0.816406 4.546875 -1.457031 3.515625 -2.25 C 2.484375 -3.039062 1.695312 -3.910156 1.15625 -4.859375 L 4.265625 -8.65625 L 4.75 -8.65625 C 5.601562 -7.375 6.691406 -6.351562 8.015625 -5.59375 C 9.335938 -4.84375 10.882812 -4.46875 12.65625 -4.46875 C 14.164062 -4.46875 15.304688 -4.785156 16.078125 -5.421875 C 16.847656 -6.066406 17.234375 -6.945312 17.234375 -8.0625 C 17.234375 -8.738281 17.109375 -9.304688 16.859375 -9.765625 C 16.609375 -10.222656 16.195312 -10.613281 15.625 -10.9375 C 15.050781 -11.257812 14.273438 -11.539062 13.296875 -11.78125 L 9.625 -12.625 C 7.0625 -13.207031 5.148438 -14.175781 3.890625 -15.53125 C 2.640625 -16.894531 2.015625 -18.664062 2.015625 -20.84375 C 2.015625 -22.457031 2.414062 -23.875 3.21875 -25.09375 C 4.03125 -26.320312 5.207031 -27.273438 6.75 -27.953125 C 8.289062 -28.628906 10.132812 -28.96875 12.28125 -28.96875 C 14.488281 -28.96875 16.375 -28.675781 17.9375 -28.09375 C 19.507812 -27.519531 20.835938 -26.632812 21.921875 -25.4375 L 19.125 -21.609375 L 18.640625 -21.609375 C 17.828125 -22.453125 16.898438 -23.082031 15.859375 -23.5 C 14.816406 -23.925781 13.625 -24.140625 12.28125 -24.140625 C 10.738281 -24.140625 9.5625 -23.863281 8.75 -23.3125 C 7.945312 -22.769531 7.546875 -22.019531 7.546875 -21.0625 C 7.546875 -20.15625 7.828125 -19.4375 8.390625 -18.90625 C 8.953125 -18.375 9.929688 -17.957031 11.328125 -17.65625 L 15.078125 -16.875 C 17.847656 -16.289062 19.859375 -15.296875 21.109375 -13.890625 C 22.359375 -12.492188 22.984375 -10.671875 22.984375 -8.421875 C 22.984375 -6.640625 22.597656 -5.085938 21.828125 -3.765625 C 21.066406 -2.441406 19.910156 -1.414062 18.359375 -0.6875 C 16.804688 0.0390625 14.90625 0.40625 12.65625 0.40625 Z M 12.65625 0.40625 "/></g></g></g><g fill="#ff914d" fill-opacity="1"><g transform="translate(56.418721, 200.336485)"><g><path d="M 12.65625 0.40625 C 10.675781 0.40625 8.914062 0.160156 7.375 -0.328125 C 5.832031 -0.816406 4.546875 -1.457031 3.515625 -2.25 C 2.484375 -3.039062 1.695312 -3.910156 1.15625 -4.859375 L 4.265625 -8.65625 L 4.75 -8.65625 C 5.601562 -7.375 6.691406 -6.351562 8.015625 -5.59375 C 9.335938 -4.84375 10.882812 -4.46875 12.65625 -4.46875 C 14.164062 -4.46875 15.304688 -4.785156 16.078125 -5.421875 C 16.847656 -6.066406 17.234375 -6.945312 17.234375 -8.0625 C 17.234375 -8.738281 17.109375 -9.304688 16.859375 -9.765625 C 16.609375 -10.222656 16.195312 -10.613281 15.625 -10.9375 C 15.050781 -11.257812 14.273438 -11.539062 13.296875 -11.78125 L 9.625 -12.625 C 7.0625 -13.207031 5.148438 -14.175781 3.890625 -15.53125 C 2.640625 -16.894531 2.015625 -18.664062 2.015625 -20.84375 C 2.015625 -22.457031 2.414062 -23.875 3.21875 -25.09375 C 4.03125 -26.320312 5.207031 -27.273438 6.75 -27.953125 C 8.289062 -28.628906 10.132812 -28.96875 12.28125 -28.96875 C 14.488281 -28.96875 16.375 -28.675781 17.9375 -28.09375 C 19.507812 -27.519531 20.835938 -26.632812 21.921875 -25.4375 L 19.125 -21.609375 L 18.640625 -21.609375 C 17.828125 -22.453125 16.898438 -23.082031 15.859375 -23.5 C 14.816406 -23.925781 13.625 -24.140625 12.28125 -24.140625 C 10.738281 -24.140625 9.5625 -23.863281 8.75 -23.3125 C 7.945312 -22.769531 7.546875 -22.019531 7.546875 -21.0625 C 7.546875 -20.15625 7.828125 -19.4375 8.390625 -18.90625 C 8.953125 -18.375 9.929688 -17.957031 11.328125 -17.65625 L 15.078125 -16.875 C 17.847656 -16.289062 19.859375 -15.296875 21.109375 -13.890625 C 22.359375 -12.492188 22.984375 -10.671875 22.984375 -8.421875 C 22.984375 -6.640625 22.597656 -5.085938 21.828125 -3.765625 C 21.066406 -2.441406 19.910156 -1.414062 18.359375 -0.6875 C 16.804688 0.0390625 14.90625 0.40625 12.65625 0.40625 Z M 12.65625 0.40625 "/></g></g></g><g fill="#ff914d" fill-opacity="1"><g transform="translate(80.947574, 200.336485)"><g><path d="M 9.359375 0 L 3.71875 0 L 3.71875 -28.5625 L 9.359375 -28.5625 Z M 9.359375 0 "/></g></g></g><g fill="#ff914d" fill-opacity="1"><g transform="translate(94.032233, 200.336485)"><g><path d="M 9.1875 0 L 3.71875 0 L 3.71875 -28.5625 L 10.171875 -28.5625 L 21.640625 -10.15625 L 22.15625 -10.234375 L 22.15625 -28.5625 L 27.578125 -28.5625 L 27.578125 0 L 21.796875 0 L 9.671875 -19.65625 L 9.1875 -19.578125 Z M 9.1875 0 "/></g></g></g><g fill="#ff914d" fill-opacity="1"><g transform="translate(125.337773, 200.336485)"><g><path d="M 9.1875 0 L 3.71875 0 L 3.71875 -28.5625 L 10.171875 -28.5625 L 21.640625 -10.15625 L 22.15625 -10.234375 L 22.15625 -28.5625 L 27.578125 -28.5625 L 27.578125 0 L 21.796875 0 L 9.671875 -19.65625 L 9.1875 -19.578125 Z M 9.1875 0 "/></g></g></g><g fill="#ff914d" fill-opacity="1"><g transform="translate(156.643313, 200.336485)"><g><path d="M 15.5625 0.40625 C 12.945312 0.40625 10.640625 -0.125 8.640625 -1.1875 C 6.640625 -2.257812 5.070312 -3.890625 3.9375 -6.078125 C 2.8125 -8.273438 2.25 -11.007812 2.25 -14.28125 C 2.25 -17.550781 2.8125 -20.28125 3.9375 -22.46875 C 5.070312 -24.664062 6.640625 -26.296875 8.640625 -27.359375 C 10.640625 -28.429688 12.945312 -28.96875 15.5625 -28.96875 C 18.1875 -28.96875 20.492188 -28.4375 22.484375 -27.375 C 24.472656 -26.3125 26.03125 -24.679688 27.15625 -22.484375 C 28.28125 -20.285156 28.84375 -17.550781 28.84375 -14.28125 C 28.84375 -11.007812 28.28125 -8.273438 27.15625 -6.078125 C 26.03125 -3.878906 24.472656 -2.25 22.484375 -1.1875 C 20.492188 -0.125 18.1875 0.40625 15.5625 0.40625 Z M 15.5625 -4.5 C 17.988281 -4.5 19.835938 -5.273438 21.109375 -6.828125 C 22.390625 -8.378906 23.03125 -10.863281 23.03125 -14.28125 C 23.03125 -17.6875 22.390625 -20.171875 21.109375 -21.734375 C 19.835938 -23.296875 17.988281 -24.078125 15.5625 -24.078125 C 13.132812 -24.078125 11.273438 -23.296875 9.984375 -21.734375 C 8.703125 -20.171875 8.0625 -17.6875 8.0625 -14.28125 C 8.0625 -10.863281 8.703125 -8.378906 9.984375 -6.828125 C 11.273438 -5.273438 13.132812 -4.5 15.5625 -4.5 Z M 15.5625 -4.5 "/></g></g></g><g fill="#ff914d" fill-opacity="1"><g transform="translate(187.753559, 200.336485)"><g><path d="M 16.96875 0 L 10.15625 0 L 0.515625 -28.5625 L 6.5 -28.5625 L 13.4375 -7.265625 L 13.921875 -7.265625 L 20.765625 -28.5625 L 26.609375 -28.5625 Z M 16.96875 0 "/></g></g></g><g fill="#ff914d" fill-opacity="1"><g transform="translate(214.860297, 200.336485)"><g><path d="M 27.40625 0 L 21.46875 0 L 19.3125 -6.578125 L 8.375 -6.578125 L 6.234375 0 L 0.4375 0 L 10.296875 -28.5625 L 17.546875 -28.5625 Z M 13.578125 -22.59375 L 9.90625 -11.328125 L 17.75 -11.328125 L 14.0625 -22.59375 Z M 13.578125 -22.59375 "/></g></g></g><g fill="#000000" fill-opacity="1"><g transform="translate(242.70116, 200.336485)"><g><path d="M 2.046875 0 L 8.109375 -28.5625 L 18.34375 -28.5625 C 19.957031 -28.5625 21.3125 -28.285156 22.40625 -27.734375 C 23.5 -27.191406 24.316406 -26.441406 24.859375 -25.484375 C 25.398438 -24.523438 25.671875 -23.429688 25.671875 -22.203125 C 25.671875 -21.597656 25.597656 -20.945312 25.453125 -20.25 C 25.085938 -18.570312 24.316406 -17.160156 23.140625 -16.015625 C 21.972656 -14.878906 20.472656 -14.164062 18.640625 -13.875 L 18.53125 -13.453125 C 19.382812 -13.085938 20.019531 -12.515625 20.4375 -11.734375 C 20.851562 -10.953125 21.144531 -9.789062 21.3125 -8.25 L 22.203125 0 L 18.828125 0 C 18.679688 -1.144531 18.460938 -3.085938 18.171875 -5.828125 L 17.828125 -8.734375 C 17.710938 -9.765625 17.488281 -10.570312 17.15625 -11.15625 C 16.820312 -11.738281 16.335938 -12.160156 15.703125 -12.421875 C 15.078125 -12.679688 14.238281 -12.8125 13.1875 -12.8125 L 8.125 -12.8125 L 5.40625 0 Z M 15.671875 -15.671875 C 19.191406 -15.671875 21.300781 -17.296875 22 -20.546875 C 22.113281 -21.117188 22.171875 -21.640625 22.171875 -22.109375 C 22.171875 -23.316406 21.796875 -24.21875 21.046875 -24.8125 C 20.304688 -25.40625 19.222656 -25.703125 17.796875 -25.703125 L 10.859375 -25.703125 L 8.734375 -15.671875 Z M 15.671875 -15.671875 "/></g></g></g><g fill="#000000" fill-opacity="1"><g transform="translate(269.143888, 200.336485)"><g><path d="M 21 -15.125 C 20.632812 -13.21875 19.570312 -11.679688 17.8125 -10.515625 C 16.050781 -9.347656 13.546875 -8.765625 10.296875 -8.765625 C 8.753906 -8.765625 7.140625 -8.894531 5.453125 -9.15625 C 5.398438 -8.757812 5.375 -8.328125 5.375 -7.859375 C 5.375 -6.097656 5.820312 -4.753906 6.71875 -3.828125 C 7.613281 -2.898438 8.914062 -2.4375 10.625 -2.4375 C 12.132812 -2.4375 13.394531 -2.71875 14.40625 -3.28125 C 15.414062 -3.851562 16.316406 -4.738281 17.109375 -5.9375 L 17.515625 -5.9375 L 19.5 -4.609375 C 18.570312 -2.941406 17.335938 -1.6875 15.796875 -0.84375 C 14.265625 -0.0078125 12.335938 0.40625 10.015625 0.40625 C 8.453125 0.40625 7.078125 0.0507812 5.890625 -0.65625 C 4.710938 -1.375 3.800781 -2.394531 3.15625 -3.71875 C 2.507812 -5.039062 2.1875 -6.582031 2.1875 -8.34375 C 2.1875 -9.425781 2.3125 -10.539062 2.5625 -11.6875 C 3.03125 -13.875 3.804688 -15.738281 4.890625 -17.28125 C 5.984375 -18.820312 7.3125 -19.984375 8.875 -20.765625 C 10.4375 -21.554688 12.160156 -21.953125 14.046875 -21.953125 C 15.597656 -21.953125 16.898438 -21.691406 17.953125 -21.171875 C 19.015625 -20.648438 19.804688 -19.957031 20.328125 -19.09375 C 20.847656 -18.226562 21.109375 -17.285156 21.109375 -16.265625 C 21.109375 -15.890625 21.070312 -15.507812 21 -15.125 Z M 13.484375 -19.265625 C 11.578125 -19.265625 10.007812 -18.675781 8.78125 -17.5 C 7.5625 -16.332031 6.617188 -14.453125 5.953125 -11.859375 C 7.484375 -11.703125 8.835938 -11.625 10.015625 -11.625 C 12.566406 -11.625 14.460938 -11.953125 15.703125 -12.609375 C 16.941406 -13.265625 17.671875 -14.207031 17.890625 -15.4375 C 17.929688 -15.664062 17.953125 -15.890625 17.953125 -16.109375 C 17.953125 -17.066406 17.554688 -17.832031 16.765625 -18.40625 C 15.984375 -18.976562 14.890625 -19.265625 13.484375 -19.265625 Z M 13.484375 -19.265625 "/></g></g></g><g fill="#000000" fill-opacity="1"><g transform="translate(292.110394, 200.336485)"><g><path d="M 1.46875 0 L 6.03125 -21.546875 L 9.0625 -21.546875 L 8.34375 -18.171875 L 8.734375 -18.0625 C 10.335938 -20.65625 12.753906 -21.953125 15.984375 -21.953125 C 17.960938 -21.953125 19.503906 -21.429688 20.609375 -20.390625 C 21.710938 -19.359375 22.265625 -17.921875 22.265625 -16.078125 C 22.265625 -15.390625 22.1875 -14.65625 22.03125 -13.875 L 19.109375 0 L 15.921875 0 L 18.84375 -13.796875 C 18.976562 -14.390625 19.046875 -14.953125 19.046875 -15.484375 C 19.046875 -16.703125 18.6875 -17.625 17.96875 -18.25 C 17.25 -18.875 16.179688 -19.1875 14.765625 -19.1875 C 12.890625 -19.1875 11.273438 -18.546875 9.921875 -17.265625 C 8.578125 -15.992188 7.601562 -13.925781 7 -11.0625 L 4.65625 0 Z M 1.46875 0 "/></g></g></g><g fill="#000000" fill-opacity="1"><g transform="translate(316.912657, 200.336485)"><g><path d="M 9.65625 -18.953125 L 6.9375 -6.15625 C 6.84375 -5.707031 6.796875 -5.289062 6.796875 -4.90625 C 6.796875 -4.0625 7.023438 -3.4375 7.484375 -3.03125 C 7.941406 -2.632812 8.570312 -2.4375 9.375 -2.4375 C 10.53125 -2.4375 11.570312 -2.765625 12.5 -3.421875 L 12.90625 -3.421875 L 13.5625 -1.140625 C 12.34375 -0.109375 10.707031 0.40625 8.65625 0.40625 C 7.082031 0.40625 5.84375 -0.0195312 4.9375 -0.875 C 4.03125 -1.738281 3.578125 -2.925781 3.578125 -4.4375 C 3.578125 -5.019531 3.640625 -5.617188 3.765625 -6.234375 L 6.46875 -18.953125 L 2.71875 -18.953125 L 3.28125 -21.5625 L 7.03125 -21.5625 L 7.984375 -26.109375 L 11.296875 -26.640625 L 10.21875 -21.5625 L 17.15625 -21.5625 L 16.578125 -18.953125 Z M 9.65625 -18.953125 "/></g></g></g><g fill="#000000" fill-opacity="1"><g transform="translate(333.317304, 200.336485)"><g><path d="M 3.421875 0.203125 C 2.679688 0.203125 2.09375 -0.00390625 1.65625 -0.421875 C 1.226562 -0.847656 1.015625 -1.40625 1.015625 -2.09375 C 1.015625 -2.769531 1.226562 -3.328125 1.65625 -3.765625 C 2.09375 -4.203125 2.679688 -4.421875 3.421875 -4.421875 C 4.171875 -4.421875 4.757812 -4.210938 5.1875 -3.796875 C 5.625 -3.378906 5.84375 -2.820312 5.84375 -2.125 C 5.84375 -1.4375 5.625 -0.875 5.1875 -0.4375 C 4.75 -0.0078125 4.160156 0.203125 3.421875 0.203125 Z M 3.421875 0.203125 "/></g></g></g><g fill="#000000" fill-opacity="1"><g transform="translate(343.843625, 200.336485)"><g><path d="M 8.984375 -25.703125 C 8.304688 -25.703125 7.753906 -25.910156 7.328125 -26.328125 C 6.910156 -26.753906 6.703125 -27.296875 6.703125 -27.953125 C 6.703125 -28.597656 6.910156 -29.132812 7.328125 -29.5625 C 7.753906 -29.988281 8.304688 -30.203125 8.984375 -30.203125 C 9.660156 -30.203125 10.207031 -29.988281 10.625 -29.5625 C 11.050781 -29.132812 11.265625 -28.597656 11.265625 -27.953125 C 11.265625 -27.296875 11.050781 -26.753906 10.625 -26.328125 C 10.207031 -25.910156 9.660156 -25.703125 8.984375 -25.703125 Z M 1.453125 0 L 6.015625 -21.546875 L 9.203125 -21.546875 L 4.625 0 Z M 1.453125 0 "/></g></g></g><g fill="#000000" fill-opacity="1"><g transform="translate(354.52618, 200.336485)"><g><path d="M 9.65625 -18.953125 L 6.9375 -6.15625 C 6.84375 -5.707031 6.796875 -5.289062 6.796875 -4.90625 C 6.796875 -4.0625 7.023438 -3.4375 7.484375 -3.03125 C 7.941406 -2.632812 8.570312 -2.4375 9.375 -2.4375 C 10.53125 -2.4375 11.570312 -2.765625 12.5 -3.421875 L 12.90625 -3.421875 L 13.5625 -1.140625 C 12.34375 -0.109375 10.707031 0.40625 8.65625 0.40625 C 7.082031 0.40625 5.84375 -0.0195312 4.9375 -0.875 C 4.03125 -1.738281 3.578125 -2.925781 3.578125 -4.4375 C 3.578125 -5.019531 3.640625 -5.617188 3.765625 -6.234375 L 6.46875 -18.953125 L 2.71875 -18.953125 L 3.28125 -21.5625 L 7.03125 -21.5625 L 7.984375 -26.109375 L 11.296875 -26.640625 L 10.21875 -21.5625 L 17.15625 -21.5625 L 16.578125 -18.953125 Z M 9.65625 -18.953125 "/></g></g></g></svg>